<?xml version="1.0" encoding="UTF-8" standalone="no"?>
<svg
   width="16"
   height="16"
   fill="#676767"
   class="bi bi-chevron-down"
   viewBox="-2 -3 10 10"
   stroke="white"
   stroke-width="3.5"
   version="1.1"
   id="svg1"
   sodipodi:docname="chevron-updown.svg"
   inkscape:version="1.3.2 (091e20e, 2023-11-25, custom)"
   xmlns:inkscape="http://www.inkscape.org/namespaces/inkscape"
   xmlns:sodipodi="http://sodipodi.sourceforge.net/DTD/sodipodi-0.dtd"
   xmlns="http://www.w3.org/2000/svg"
   xmlns:svg="http://www.w3.org/2000/svg">
  <defs
     id="defs1" />
  <sodipodi:namedview
     id="namedview1"
     pagecolor="#ffffff"
     bordercolor="#000000"
     borderopacity="0.25"
     inkscape:showpageshadow="2"
     inkscape:pageopacity="0.0"
     inkscape:pagecheckerboard="0"
     inkscape:deskcolor="#d1d1d1"
     showguides="true"
     inkscape:zoom="64"
     inkscape:cx="8.7890625"
     inkscape:cy="7.9765625"
     inkscape:window-width="2498"
     inkscape:window-height="1417"
     inkscape:window-x="-8"
     inkscape:window-y="-8"
     inkscape:window-maximized="1"
     inkscape:current-layer="svg1">
    <sodipodi:guide
       position="5,15.019531"
       orientation="1,0"
       id="guide2"
       inkscape:locked="false" />
    <sodipodi:guide
       position="4.5898437,4.9804688"
       orientation="0,-1"
       id="guide3"
       inkscape:locked="false" />
  </sodipodi:namedview>
  <g
     transform="matrix(0.3,0,0,0.3,0.61974102,1.550197)"
     id="g1"
     style="fill:none">
    <path
       fill-rule="evenodd"
       d="m 1.646,4.646 a 0.5,0.5 0 0 1 0.708,0 L 8,10.293 13.646,4.646 a 0.5006316,0.5006316 0 0 1 0.708,0.708 l -6,6 a 0.5,0.5 0 0 1 -0.708,0 l -6,-6 a 0.5,0.5 0 0 1 0,-0.708"
       id="path1"
       style="fill:none;fill-opacity:1" />
  </g>
  <g
     transform="matrix(-0.3,0,0,-0.3,5.423143,2.5073116)"
     id="g2"
     style="fill:none">
    <path
       fill-rule="evenodd"
       d="m 1.646,4.646 a 0.5,0.5 0 0 1 0.708,0 L 8,10.293 13.646,4.646 a 0.5006316,0.5006316 0 0 1 0.708,0.708 l -6,6 a 0.5,0.5 0 0 1 -0.708,0 l -6,-6 a 0.5,0.5 0 0 1 0,-0.708"
       id="path2"
       style="fill:none;fill-opacity:1" />
  </g>
</svg>
