<?xml version="1.0" encoding="UTF-8" standalone="no"?>
<svg
   width="128"
   height="128"
   fill="currentColor"
   class="bi bi-palette-fill"
   viewBox="0 0 128 128"
   version="1.1"
   id="svg1"
   xmlns="http://www.w3.org/2000/svg"
   xmlns:svg="http://www.w3.org/2000/svg">
  <defs
     id="defs1" />
  <path
     d="m 3.5322211,84.669651 2.5137228,-6.947867 4.1843341,-11.475691 4.184333,-11.475692 1.936035,-5.339709 c 0.01015,-0.05388 0.0049,-0.118334 0.01559,-0.171742 0.175651,-0.874337 0.437166,-1.686225 0.765045,-2.435657 0.124426,-0.2844 0.308767,-0.514251 0.452786,-0.780657 l 0.999244,-2.763534 4.184333,-11.47569 4.184334,-11.491304 4.028201,-11.1009754 C 29.537105,10.100133 28.1175,11.0589 26.717801,12.083953 c -2.717455,1.990097 -5.351223,4.242688 -7.869045,6.760509 -2.517821,2.517822 -4.770413,5.15159 -6.760509,7.869045 -1.990097,2.717456 -3.7171138,5.514791 -5.1991911,8.384281 -1.4820775,2.86949 -2.7221751,5.800686 -3.7159381,8.77461 -0.9937631,2.973924 -1.7387583,5.993662 -2.26391192,9.024421 -0.52515348,3.030759 -0.82931556,6.078106 -0.90556474,9.1181 -0.0762491,3.039994 0.06860568,6.069631 0.42155604,9.071261 0.35295036,3.00163 0.92377932,5.968237 1.68622402,8.883903 0.4138421,1.582575 0.8907934,3.153138 1.4207999,4.699568 z"
     id="path114"
     style="fill:#e9b992;fill-opacity:1;stroke-width:7.99395" />
  <path
     d="m 3.5322211,84.669651 c 0.4464542,1.302647 0.9252052,2.584437 1.4520262,3.856458 1.1522342,2.782111 2.4902697,5.486688 4.0125884,8.087632 1.5223183,2.600928 3.2328133,5.106539 5.1055113,7.478719 1.872699,2.37217 3.901384,4.61786 6.104756,6.71366 1.812914,1.72442 3.767875,3.31652 5.792492,4.82448 l 1.483252,-4.09066 4.184334,-11.4913 1.249055,-3.434899 c -0.02198,-0.05916 -0.057,-0.112475 -0.0781,-0.17179 -0.249776,-0.702548 -0.437134,-1.432468 -0.56204,-2.17019 -0.124905,-0.737722 -0.187358,-1.483253 -0.187358,-2.232686 0,-0.749433 0.06243,-1.494965 0.187354,-2.232687 0.124906,-0.737762 0.312276,-1.467641 0.562071,-2.17023 0.249811,-0.702588 0.562071,-1.385679 0.936791,-2.029712 0.374716,-0.644072 0.811886,-1.249054 1.311508,-1.811133 0.499621,-0.562055 1.061697,-1.073404 1.686224,-1.53009 0.525354,-0.38419 1.119321,-0.704907 1.733063,-0.999244 l 1.514479,-4.168722 4.184334,-11.491305 4.184333,-11.475691 4.168721,-11.491305 2.373204,-6.510698 c -0.432203,-0.509107 -0.837624,-1.0352 -1.170981,-1.608158 -0.374716,-0.644043 -0.68698,-1.32712 -0.936791,-2.029714 -0.249811,-0.702593 -0.437169,-1.432511 -0.562075,-2.170233 -0.124905,-0.737722 -0.187358,-1.483253 -0.187358,-2.232685 0,-0.749432 0.06244,-1.494963 0.187358,-2.232686 0.124906,-0.737721 0.312272,-1.46764 0.562075,-2.170232 0.249811,-0.702596 0.562071,-1.385672 0.936791,-2.029715 0.374723,-0.644043 0.811887,-1.249055 1.311508,-1.811129 0.499621,-0.562074 1.061697,-1.073407 1.686224,-1.530092 0.624526,-0.456685 1.311508,-0.858725 2.06094,-1.186602 0.749433,-0.32788 1.561319,-0.589394 2.435657,-0.765045 0.281971,-0.05668 0.61061,-0.05444 0.905564,-0.09368 L 65.095011,8.1962693 68.03029,0.17109249 C 66.030801,0.03196657 64.031994,-0.0511371 62.019213,-6.5258611e-4 58.979219,0.0755966 55.931872,0.37975867 52.901113,0.90491216 49.870354,1.4300657 46.850616,2.175061 43.876692,3.1688241 c -2.973925,0.993763 -5.90512,2.2338606 -8.774611,3.7159381 -1.391482,0.7186936 -2.763266,1.4894029 -4.12188,2.3263648 l -4.028202,11.100975 -4.184333,11.491304 -4.184334,11.475691 -0.999244,2.763533 c 0.235495,-0.435623 0.450437,-0.89275 0.73382,-1.28028 0.456686,-0.624527 0.968018,-1.186603 1.530092,-1.686224 0.56207,-0.499621 1.167086,-0.936792 1.811129,-1.311508 0.64404,-0.374716 1.327121,-0.686976 2.029715,-0.936791 0.702595,-0.249811 1.43251,-0.437169 2.170232,-0.562075 0.737722,-0.124909 1.483253,-0.187358 2.232686,-0.187358 0.749432,0 1.494963,0.06243 2.232685,0.187354 0.737722,0.124906 1.46764,0.312276 2.170232,0.562071 0.702597,0.249811 1.385672,0.562071 2.029715,0.936791 0.64404,0.374717 1.249055,0.811887 1.811129,1.311508 0.562071,0.499622 1.073407,1.061697 1.530092,1.686224 0.456687,0.624527 0.858726,1.311508 1.186602,2.06094 0.32788,0.749433 0.589394,1.561319 0.765045,2.435657 0.175649,0.874352 0.265426,1.811139 0.265426,2.810381 0,0.999243 -0.08978,1.936037 -0.265424,2.810374 -0.175651,0.874337 -0.437167,1.686225 -0.765047,2.435657 -0.327879,0.749432 -0.729914,1.436413 -1.186602,2.06094 -0.456686,0.624527 -0.968018,1.186603 -1.530092,1.686224 -0.56207,0.499621 -1.167086,0.936792 -1.811129,1.311508 -0.64404,0.374716 -1.327121,0.686976 -2.029715,0.936791 -0.702595,0.249811 -1.43251,0.437169 -2.170232,0.562074 -0.737725,0.12491 -1.483253,0.187359 -2.232685,0.187359 -0.749433,0 -1.494964,-0.06244 -2.232686,-0.187359 -0.737722,-0.124908 -1.46764,-0.312263 -2.170232,-0.562074 -0.702594,-0.249811 -1.385672,-0.562075 -2.029715,-0.936791 -0.644043,-0.374716 -1.249055,-0.811887 -1.811129,-1.311508 -0.562074,-0.499621 -1.073407,-1.061697 -1.530092,-1.686224 -0.456686,-0.624527 -0.858726,-1.311508 -1.186602,-2.06094 -0.327878,-0.749432 -0.589398,-1.56132 -0.765047,-2.435657 -0.175648,-0.874337 -0.265424,-1.811131 -0.265424,-2.810374 0,-0.938197 0.09434,-1.810541 0.249811,-2.638628 l -1.936035,5.339709 -4.184333,11.475692 -4.1843341,11.475691 z"
     id="path115"
     style="fill:#f79aab;fill-opacity:1;stroke-width:7.99395" />
  <path
     d="m 68.03029,0.17109249 -2.935279,8.02517681 -2.93528,8.0720177 c 0.61966,-0.08236 1.227817,-0.171746 1.904809,-0.171746 0.999243,0 1.936037,0.08978 2.810374,0.265424 0.874337,0.175651 1.686225,0.437165 2.435657,0.765045 0.749433,0.32788 1.436413,0.729911 2.06094,1.186602 0.624528,0.456686 1.186603,0.968018 1.686224,1.530092 0.499622,0.56207 0.936792,1.167086 1.311508,1.811129 0.374716,0.644041 0.686976,1.327121 0.936791,2.029715 0.249811,0.702596 0.437165,1.43251 0.56207,2.170232 0.124914,0.737727 0.187363,1.483256 0.187363,2.232688 0,0.749433 -0.06243,1.494963 -0.187355,2.232685 -0.124909,0.737721 -0.312275,1.46764 -0.562078,2.170233 -0.249811,0.702596 -0.562071,1.385671 -0.936791,2.029714 -0.374723,0.644043 -0.811887,1.249056 -1.311508,1.81113 -0.499621,0.562073 -1.061697,1.073407 -1.686224,1.530091 -0.624527,0.456686 -1.311508,0.858727 -2.06094,1.186602 -0.749432,0.327878 -1.56132,0.589398 -2.435657,0.765047 -0.874337,0.175648 -1.811131,0.265424 -2.810374,0.265424 -0.999242,0 -1.936036,-0.08978 -2.810373,-0.265424 -0.874338,-0.175649 -1.686226,-0.437169 -2.435657,-0.765047 -0.749432,-0.327875 -1.436414,-0.729916 -2.06094,-1.186602 -0.624527,-0.456684 -1.186603,-0.968018 -1.686224,-1.530091 -0.05516,-0.06203 -0.08689,-0.139807 -0.140518,-0.202975 l -2.373204,6.510698 -4.168721,11.491305 -4.184333,11.475691 -4.184334,11.491304 -1.514479,4.168726 c 0.115856,-0.05596 0.208874,-0.135258 0.32788,-0.187378 0.749433,-0.327832 1.561319,-0.589314 2.435657,-0.765021 0.87434,-0.175612 1.811127,-0.265432 2.810369,-0.265432 0.999242,0 1.936037,0.08977 2.810374,0.2654 0.874337,0.175627 1.686225,0.437109 2.435656,0.765021 0.749433,0.327912 1.436414,0.729927 2.060941,1.186606 0.624527,0.456694 1.186603,0.968019 1.686224,1.53009 0.499622,0.562055 0.936792,1.167085 1.311508,1.811133 0.374716,0.644073 0.686976,1.327116 0.936791,2.029712 0.249811,0.702589 0.437165,1.432508 0.56207,2.17023 0.12491,0.73781 0.187363,1.483302 0.187363,2.232735 0,0.749433 -0.06243,1.494964 -0.187355,2.232686 -0.124905,0.737762 -0.312275,1.467642 -0.56207,2.17023 -0.249811,0.702588 -0.562071,1.385679 -0.936791,2.02972 -0.374717,0.644073 -0.811887,1.249055 -1.311508,1.811129 -0.499622,0.56205 -1.061697,1.0734 -1.686224,1.53009 -0.624527,0.45669 -1.311508,0.85872 -2.060941,1.1866 -0.749432,0.32783 -1.561319,0.58932 -2.435656,0.76502 -0.874345,0.1756 -1.81114,0.26545 -2.810382,0.26545 -0.999242,0 -1.936036,-0.0898 -2.810373,-0.26542 -0.874338,-0.17563 -1.686226,-0.43714 -2.435657,-0.76505 -0.749432,-0.32791 -1.436414,-0.72992 -2.06094,-1.1866 -0.624527,-0.45666 -1.186603,-0.96801 -1.686224,-1.53009 -0.499622,-0.562074 -0.936792,-1.167088 -1.311508,-1.811129 -0.343094,-0.58969 -0.620345,-1.218366 -0.858725,-1.85797 l -1.249055,3.434899 -4.184334,11.4913 -1.483252,4.09066 c 0.436054,0.32479 0.850329,0.66965 1.295894,0.98363 2.514341,1.77185 5.172732,3.37734 7.978338,4.77763 2.805605,1.40029 5.759896,2.5943 8.837062,3.57543 3.077166,0.98112 6.288704,1.74955 9.617722,2.26391 0.563646,0.0871 1.146914,0.13006 1.717451,0.20296 l 1.842356,-5.05867 4.184333,-11.47569 4.168721,-11.47569 4.184334,-11.491304 4.184333,-11.47569 L 78.17886,64.965812 82.363198,53.49012 86.547527,42.014429 90.716245,30.523125 94.900582,19.047433 98.194961,9.9917858 C 97.667521,9.6626269 97.154389,9.3064724 96.618035,8.992542 94.017091,7.4702233 91.312513,6.1321877 88.530403,4.9799536 85.7483,3.8277194 82.890039,2.8695722 79.974376,2.1071275 77.058711,1.3446828 74.092104,0.77385381 71.090474,0.42090346 70.076224,0.30164162 69.050718,0.24209476 68.03029,0.17109249 Z"
     id="path116"
     style="fill:#ec74c9;fill-opacity:1;stroke-width:7.99395" />
  <path
     d="m 98.194961,9.9917858 -3.294379,9.0556472 -4.184337,11.475692 -4.168718,11.491304 -4.184329,11.475691 -4.184338,11.475692 -4.168721,11.491304 -4.184333,11.47569 -4.184334,11.491304 -4.168721,11.47569 -4.184333,11.47569 -1.842356,5.05867 c 2.799175,0.35772 5.660263,0.57769 8.618478,0.57769 0.997245,0 1.928575,-0.0496 2.794761,-0.14053 0.866185,-0.0911 1.660877,-0.22927 2.40443,-0.40593 0.743557,-0.17667 1.431591,-0.38355 2.06094,-0.64016 0.629348,-0.2566 1.209492,-0.55894 1.733064,-0.88996 0.523572,-0.33103 0.994578,-0.69315 1.4208,-1.09291 0.426222,-0.39978 0.802463,-0.83294 1.139763,-1.2959 0.337296,-0.46293 0.633144,-0.9627 0.889951,-1.48326 0.256806,-0.52056 0.471011,-1.06681 0.655752,-1.63938 0.184732,-0.57261 0.347305,-1.16091 0.468397,-1.7799 0.121093,-0.61897 0.199537,-1.26061 0.265423,-1.92042 0.06587,-0.65982 0.105808,-1.35028 0.124906,-2.04533 0.0191,-0.69508 0.01926,-1.3987 0,-2.1234 -0.01927,-0.72473 -0.04453,-1.46831 -0.09368,-2.21706 -0.04916,-0.7488 -0.116664,-1.5123 -0.187355,-2.27953 -0.07067,-0.76726 -0.150414,-1.53064 -0.234198,-2.31075 -0.08379,-0.78014 -0.176991,-1.57016 -0.265424,-2.35757 -0.06195,-0.55006 -0.126596,-1.10368 -0.187358,-1.65499 -0.06075,-0.55135 -0.115025,-1.10437 -0.171742,-1.65501 -0.05668,-0.550621 -0.106336,-1.091316 -0.15613,-1.639381 -0.0498,-0.548066 -0.100516,-1.095795 -0.140518,-1.639384 -0.03997,-0.543588 -0.06635,-1.08657 -0.09368,-1.623771 -0.02734,-0.537194 -0.0506,-1.079247 -0.06243,-1.608159 -0.01183,-0.52888 -0.02214,-1.042595 -0.01559,-1.561315 0.0066,-0.518727 0.03461,-1.039093 0.06243,-1.54571 0.02782,-0.506657 0.05732,-1.006255 0.109293,-1.498866 0.05196,-0.492587 0.123978,-0.975318 0.202974,-1.452021 0.07898,-0.476679 0.172166,-0.946308 0.281036,-1.405185 0.108869,-0.458852 0.233103,-0.903572 0.374716,-1.342736 0.141613,-0.439187 0.291172,-0.862747 0.468398,-1.280279 0.177226,-0.417524 0.377594,-0.823816 0.593303,-1.21783 0.215701,-0.394022 0.445543,-0.786845 0.702596,-1.155374 0.257075,-0.368577 0.541802,-0.720455 0.843074,-1.061701 0.232304,-0.263296 0.487391,-0.50437 0.749433,-0.718208 0.262122,-0.213838 0.537353,-0.394582 0.827502,-0.562071 0.29018,-0.167497 0.589074,-0.312891 0.905563,-0.437165 0.31656,-0.124282 0.642393,-0.228075 0.983631,-0.312268 0.341262,-0.08418 0.697472,-0.155754 1.061693,-0.202974 0.364284,-0.04724 0.738561,-0.08033 1.124149,-0.09368 0.385628,-0.01335 0.781409,-0.0017 1.186606,0.01559 0.405214,0.01735 0.825871,0.04876 1.249055,0.09368 0.4232,0.04493 0.85644,0.102299 1.295891,0.171742 0.439428,0.06947 0.873092,0.143396 1.327124,0.234199 0.454057,0.0908 0.922646,0.203222 1.389573,0.312268 0.466926,0.109045 0.942654,0.21933 1.420797,0.343492 0.478118,0.124154 0.964366,0.254183 1.452029,0.390328 0.487631,0.136145 0.972144,0.276535 1.467641,0.421553 0.495465,0.145019 0.997214,0.30202 1.498866,0.452786 0.50162,0.150766 1.008365,0.299373 1.514478,0.452777 0.849357,0.257325 1.704737,0.511933 2.560557,0.765021 0.85583,0.253089 1.70623,0.499622 2.56057,0.733845 0.32503,0.08905 0.64399,0.164915 0.96802,0.249811 l 2.38881,-6.541897 4.18433,-11.475691 4.16873,-11.491305 4.18433,-11.47569 1.62377,-4.449759 c -0.25342,-0.547373 -0.48135,-1.117869 -0.74943,-1.654997 -1.4003,-2.805606 -3.00578,-5.463997 -4.77764,-7.978338 -1.77185,-2.514342 -3.71229,-4.885013 -5.8081,-7.088386 -2.09581,-2.203371 -4.3415,-4.232057 -6.71367,-6.104755 -1.88299,-1.486517 -3.87156,-2.839243 -5.901789,-4.1062682 z m 1.842359,30.0866082 c 0.99924,0 1.93604,0.08978 2.81038,0.265423 0.87433,0.175651 1.68622,0.437165 2.43565,0.765045 0.74943,0.32788 1.43642,0.729912 2.06094,1.186602 0.62457,0.456687 1.1866,0.968019 1.68622,1.530093 0.49963,0.562071 0.9368,1.167086 1.31152,1.811129 0.37467,0.644041 0.687,1.327122 0.93678,2.029714 0.24981,0.702596 0.43719,1.432511 0.56206,2.170233 0.12496,0.737723 0.18738,1.483255 0.18738,2.232687 0,0.749433 -0.0624,1.494964 -0.18738,2.232686 -0.12495,0.737722 -0.31225,1.46764 -0.56206,2.170232 -0.24981,0.702597 -0.56205,1.385672 -0.93678,2.029715 -0.37472,0.644044 -0.8119,1.249055 -1.31152,1.811129 -0.49962,0.562074 -1.0617,1.073407 -1.68622,1.530092 -0.62452,0.456686 -1.31151,0.858725 -2.06094,1.186602 -0.74943,0.327877 -1.56132,0.589398 -2.43565,0.765047 -0.87434,0.175648 -1.81114,0.265424 -2.81038,0.265424 -0.999245,0 -1.93604,-0.08978 -2.81037,-0.265424 C 96.352612,63.619174 95.540722,63.357654 94.791289,63.029776 94.041856,62.7019 93.354872,62.29986 92.730353,61.843174 92.105825,61.386489 91.543746,60.875156 91.044125,60.313082 90.544511,59.751008 90.107329,59.145996 89.732621,58.501953 89.357905,57.85791 89.045637,57.174831 88.795826,56.472238 88.546015,55.769645 88.358653,55.039728 88.233755,54.302006 88.10885,53.564284 88.046393,52.818752 88.046393,52.06932 c 0,-0.749433 0.06235,-1.494963 0.187378,-2.232685 0.124946,-0.737722 0.312244,-1.467639 0.562055,-2.170233 0.249811,-0.702596 0.562063,-1.385671 0.936795,-2.029714 0.374708,-0.644043 0.81189,-1.249056 1.311504,-1.811129 0.499621,-0.562074 1.0617,-1.073407 1.686228,-1.530093 0.624519,-0.456685 1.311503,-0.858725 2.060936,-1.186602 0.749433,-0.327876 1.561323,-0.589397 2.435661,-0.765046 0.87433,-0.175649 1.811125,-0.265424 2.81037,-0.265424 z"
     id="path117"
     style="fill:#c84de3;fill-opacity:1;stroke-width:7.99395" />
  <path
     d="m 122.14559,36.92453 -1.62377,4.449759 -4.18433,11.47569 -4.16873,11.491305 -4.18433,11.475691 -2.38881,6.541929 c 0.52768,0.138215 1.05342,0.281707 1.57692,0.405933 0.84492,0.200568 1.68617,0.378673 2.51373,0.530878 0.82756,0.152205 1.649,0.285464 2.45127,0.374676 0.80226,0.08921 1.58856,0.144611 2.35759,0.156122 0.76902,0.01119 1.52045,-0.02798 2.2483,-0.109277 0.72785,-0.0809 1.42905,-0.202327 2.10778,-0.390345 0.67877,-0.188017 1.32996,-0.439667 1.95164,-0.749433 0.62169,-0.309765 1.22322,-0.677887 1.77991,-1.124149 0.5567,-0.446302 1.07756,-0.963871 1.56132,-1.561316 0.48379,-0.597452 0.92423,-1.282 1.32712,-2.045328 0.4029,-0.763326 0.76326,-1.616658 1.07731,-2.560562 0.31408,-0.943904 0.57892,-1.983461 0.79627,-3.122637 0.21736,-1.139176 0.38699,-2.366794 0.49963,-3.715938 0.11262,-1.349168 0.17174,-2.813474 0.17174,-4.387281 0,-3.56117 -0.2663,-7.006909 -0.78066,-10.335929 -0.51435,-3.329019 -1.28279,-6.540557 -2.26391,-9.617723 -0.79329,-2.488047 -1.7557,-4.870317 -2.82599,-7.182065 z"
     id="path118"
     style="fill:#9128f3;fill-opacity:1;stroke-width:7.99395" />
</svg>
